<svg width="48" height="48" viewBox="0 0 48 48" fill="none" xmlns="http://www.w3.org/2000/svg">
<g clip-path="url(#clip0_15_29)">
<path fill-rule="evenodd" clip-rule="evenodd" d="M37.479 40.0118C33.7639 43.1072 29.0881 44.8286 24.244 44.8842C19.4 44.9398 14.6856 43.3263 10.8997 40.317C7.11388 37.3078 4.48942 33.0879 3.47109 28.3724C2.45275 23.657 3.10317 18.736 5.31214 14.4434C7.5211 10.1508 11.1527 6.7506 15.5917 4.81896C20.0306 2.88733 25.0037 2.54308 29.6684 3.84455C34.3331 5.14603 38.4024 8.01317 41.1867 11.9601C43.971 15.9071 45.2991 20.6911 44.946 25.5015C45.978 25.6001 46.986 25.9406 47.871 26.4812C48.458 20.9384 47.0804 15.3656 43.9766 10.7272C40.8728 6.0888 36.2382 2.67653 30.8745 1.08081C25.5109 -0.514904 19.7557 -0.193664 14.6048 1.98895C9.45393 4.17156 5.23138 8.07822 2.66779 13.033C0.104206 17.9877 -0.639128 23.6789 0.566406 29.1216C1.77194 34.5644 4.8505 39.4163 9.2694 42.838C13.6883 46.2597 19.1695 48.0357 24.7647 47.8589C30.3599 47.6821 35.7169 45.5635 39.909 41.8697C39.0627 41.299 38.2512 40.6786 37.479 40.0118ZM26.286 30.394C25.1654 30.6616 24.0574 30.9786 22.965 31.3439C22.7757 31.4133 22.5743 31.4439 22.3729 31.4341C22.1714 31.4242 21.974 31.374 21.7925 31.2864C21.611 31.1988 21.4491 31.0757 21.3164 30.9243C21.1838 30.773 21.0832 30.5966 21.0206 30.4057C20.9581 30.2148 20.9348 30.0133 20.9523 29.8132C20.9697 29.6131 21.0275 29.4186 21.1222 29.2413C21.2169 29.064 21.3466 28.9075 21.5034 28.7812C21.6602 28.6549 21.841 28.5614 22.035 28.5063C23.175 28.1329 24.441 27.7476 25.611 27.4818C26.721 27.2249 27.951 27.0248 28.92 27.1592C29.4 27.2249 30.102 27.4131 30.603 28.0135C31.167 28.6885 31.164 29.498 30.996 30.1192C30.7942 30.76 30.4792 31.3598 30.066 31.8905C29.835 32.2101 29.562 32.5476 29.241 32.915C29.562 33.2853 29.838 33.6318 30.069 33.9514C30.495 34.5398 30.837 35.1372 30.999 35.7286C31.164 36.3499 31.167 37.1594 30.603 37.8374C30.099 38.4348 29.391 38.6199 28.914 38.6857C27.945 38.8141 26.715 38.605 25.608 38.3481C24.4031 38.0543 23.2111 37.7105 22.035 37.3177C21.841 37.2625 21.6602 37.1691 21.5034 37.0428C21.3466 36.9165 21.2169 36.76 21.1222 36.5827C21.0275 36.4054 20.9697 36.2108 20.9523 36.0108C20.9348 35.8107 20.9581 35.6092 21.0206 35.4183C21.0832 35.2273 21.1838 35.0509 21.3164 34.8996C21.4491 34.7483 21.611 34.6252 21.7925 34.5376C21.974 34.45 22.1714 34.3998 22.3729 34.3899C22.5743 34.38 22.7757 34.4107 22.965 34.4801C24.078 34.8385 25.248 35.197 26.292 35.4389C26.82 35.5614 27.267 35.645 27.63 35.6898C27.1687 35.0747 26.6655 34.4919 26.124 33.9455C25.8544 33.6662 25.7044 33.2936 25.7055 32.9063C25.7066 32.519 25.8588 32.1473 26.13 31.8696C26.6693 31.3302 27.1705 30.7544 27.63 30.1461C27.1781 30.2049 26.7295 30.2897 26.286 30.394ZM28.584 30.1342L28.575 30.1312L28.566 30.1282C28.578 30.1282 28.584 30.1342 28.584 30.1342ZM28.59 35.7107L28.572 35.7137C28.5778 35.7112 28.5838 35.7092 28.59 35.7077V35.7107ZM18 23.9782C19.656 23.9782 21 21.971 21 19.4978C21 17.0247 19.656 15.0175 18 15.0175C16.344 15.0175 15 17.0247 15 19.4978C15 21.971 16.344 23.9782 18 23.9782ZM26.271 22.2965C26.4432 22.3919 26.6325 22.4525 26.8282 22.475C27.0239 22.4974 27.2221 22.4813 27.4115 22.4275C27.601 22.3737 27.7779 22.2832 27.9322 22.1614C28.0866 22.0395 28.2153 21.8885 28.311 21.7171C28.5479 21.2767 28.8992 20.9077 29.3282 20.6487C29.7572 20.3897 30.2483 20.2501 30.75 20.2445C31.767 20.2445 32.685 20.8121 33.189 21.7171C33.3823 22.0633 33.7059 22.3188 34.0885 22.4275C34.471 22.5361 34.8813 22.489 35.229 22.2965C35.5767 22.104 35.8333 21.7819 35.9425 21.401C36.0516 21.0201 36.0043 20.6116 35.811 20.2655C35.3142 19.3597 34.5827 18.603 33.6927 18.074C32.8026 17.5451 31.7865 17.2632 30.75 17.2576C28.56 17.2576 26.682 18.4882 25.689 20.2655C25.5933 20.4369 25.5324 20.6254 25.5098 20.8202C25.4872 21.015 25.5034 21.2124 25.5575 21.401C25.6115 21.5896 25.7023 21.7658 25.8248 21.9194C25.9472 22.0731 26.0988 22.2012 26.271 22.2965ZM42 29.4382C45.33 26.0332 53.652 31.995 42 39.6594C30.348 31.995 38.67 26.0332 42 29.4412V29.4382Z" fill="white"/>
</g>
<defs>
<clipPath id="clip0_15_29">
<rect width="48" height="47.7904" fill="white" transform="translate(0 0.0829773)"/>
</clipPath>
</defs>
</svg>
