<svg width="48" height="48" viewBox="0 0 48 48" fill="none" xmlns="http://www.w3.org/2000/svg">
<g clip-path="url(#clip0_15_33)">
<path d="M18 0.828333C18.2928 1.18262 18.4722 1.61619 18.515 2.07304C18.5578 2.52989 18.462 2.98901 18.24 3.39109C16.5056 6.56161 15.5998 10.1155 15.606 13.7258C15.606 25.7361 25.44 35.4614 37.56 35.4614C39.141 35.4614 40.68 35.2972 42.159 34.9835C42.6124 34.8858 43.0846 34.9232 43.5168 35.091C43.949 35.2589 44.3219 35.5498 44.589 35.9274C44.871 36.32 45.0147 36.7944 44.9979 37.2768C44.9811 37.7592 44.8046 38.2225 44.496 38.5947C42.1431 41.4724 39.1747 43.791 35.8075 45.3815C32.4403 46.972 28.759 47.7943 25.032 47.7884C11.202 47.7884 0 36.695 0 23.027C0 12.7401 6.342 3.91679 15.372 0.177189C15.8218 -0.0120856 16.3212 -0.0509333 16.795 0.0664812C17.2689 0.183896 17.6918 0.451233 18 0.828333ZM14.574 3.9138C11.1018 5.76815 8.19911 8.5245 6.17439 11.8899C4.14968 15.2553 3.0786 19.104 3.075 23.027C3.075 35.0343 12.912 44.7597 25.032 44.7597C27.9343 44.7647 30.8088 44.1965 33.4892 43.088C36.1695 41.9796 38.6024 40.3528 40.647 38.302C39.636 38.4274 38.607 38.4902 37.56 38.4902C23.73 38.4902 12.531 27.3968 12.531 13.7288C12.531 10.243 13.257 6.92459 14.574 3.9138Z" fill="white"/>
<path d="M32.382 9.48575C32.425 9.3564 32.5079 9.24384 32.6188 9.16406C32.7298 9.08428 32.8632 9.04134 33 9.04134C33.1369 9.04134 33.2702 9.08428 33.3812 9.16406C33.4921 9.24384 33.575 9.3564 33.618 9.48575L34.779 12.9565C35.298 14.5037 36.516 15.7164 38.07 16.2332L41.556 17.3891C41.6859 17.4319 41.799 17.5144 41.8791 17.6249C41.9592 17.7353 42.0024 17.8681 42.0024 18.0044C42.0024 18.1406 41.9592 18.2734 41.8791 18.3839C41.799 18.4944 41.6859 18.5769 41.556 18.6197L38.07 19.7756C37.3036 20.0299 36.6072 20.4583 36.0359 21.0271C35.4647 21.5958 35.0344 22.2892 34.779 23.0523L33.618 26.523C33.575 26.6524 33.4921 26.7649 33.3812 26.8447C33.2702 26.9245 33.1369 26.9674 33 26.9674C32.8632 26.9674 32.7298 26.9245 32.6188 26.8447C32.5079 26.7649 32.425 26.6524 32.382 26.523L31.221 23.0523C30.9657 22.2892 30.5353 21.5958 29.9641 21.0271C29.3929 20.4583 28.6964 20.0299 27.93 19.7756L24.444 18.6197C24.3141 18.5769 24.201 18.4944 24.1209 18.3839C24.0408 18.2734 23.9977 18.1406 23.9977 18.0044C23.9977 17.8681 24.0408 17.7353 24.1209 17.6249C24.201 17.5144 24.3141 17.4319 24.444 17.3891L27.93 16.2332C28.6964 15.9789 29.3929 15.5505 29.9641 14.9817C30.5353 14.413 30.9657 13.7196 31.221 12.9565L32.382 9.48575ZM41.589 0.378694C41.6186 0.293646 41.6741 0.219898 41.7478 0.167704C41.8214 0.11551 41.9096 0.0874634 42 0.0874634C42.0904 0.0874634 42.1786 0.11551 42.2522 0.167704C42.3259 0.219898 42.3814 0.293646 42.411 0.378694L43.185 2.69055C43.53 3.72402 44.343 4.53347 45.381 4.87697L47.703 5.64759C47.7884 5.67707 47.8625 5.73232 47.9149 5.80566C47.9674 5.879 47.9955 5.96678 47.9955 6.05679C47.9955 6.1468 47.9674 6.23458 47.9149 6.30792C47.8625 6.38126 47.7884 6.43651 47.703 6.466L45.381 7.23662C44.8695 7.40604 44.4047 7.69187 44.0235 8.0714C43.6423 8.45094 43.3552 8.91373 43.185 9.42303L42.411 11.7349C42.3814 11.8199 42.3259 11.8937 42.2522 11.9459C42.1786 11.9981 42.0904 12.0261 42 12.0261C41.9096 12.0261 41.8214 11.9981 41.7478 11.9459C41.6741 11.8937 41.6186 11.8199 41.589 11.7349L40.815 9.42303C40.6448 8.91373 40.3578 8.45094 39.9766 8.0714C39.5954 7.69187 39.1305 7.40604 38.619 7.23662L36.297 6.466C36.2116 6.43651 36.1375 6.38126 36.0851 6.30792C36.0327 6.23458 36.0045 6.1468 36.0045 6.05679C36.0045 5.96678 36.0327 5.879 36.0851 5.80566C36.1375 5.73232 36.2116 5.67707 36.297 5.64759L38.619 4.87697C39.657 4.53347 40.47 3.72402 40.815 2.69055L41.589 0.381681V0.378694Z" fill="white"/>
</g>
<defs>
<clipPath id="clip0_15_33">
<rect width="48" height="47.7904" fill="white" transform="translate(0 0.0829773)"/>
</clipPath>
</defs>
</svg>
